<svg width="25" height="23" viewBox="0 0 25 23" fill="none" xmlns="http://www.w3.org/2000/svg">
<path d="M18.3604 14.3353L21.0086 16.9834C21.3646 17.3395 21.3646 17.9168 21.0086 18.2729C19.0833 20.1982 16.0354 20.4148 13.8573 18.7812L12.2819 17.5996C10.5384 16.292 8.98954 14.7431 7.68189 12.9996L6.50033 11.4242C4.86673 9.24605 5.08333 6.19816 7.00855 4.27294C7.36465 3.91685 7.94199 3.91685 8.29809 4.27294L10.9462 6.92107C11.3367 7.31159 11.3367 7.94476 10.9462 8.33528L9.92507 9.35643C9.76278 9.51871 9.72255 9.76663 9.82519 9.97191C11.0118 12.3452 12.9363 14.2696 15.3096 15.4563C15.5149 15.5589 15.7628 15.5187 15.9251 15.3564L16.9462 14.3353C17.3367 13.9448 17.9699 13.9448 18.3604 14.3353Z" stroke="#065C99" stroke-width="1.7"/>
</svg>
